<svg width="198" height="29" viewBox="0 0 198 29" fill="none" xmlns="http://www.w3.org/2000/svg">
<path d="M16.8306 11.9296H4.22163V0.84375H0.679688V28.1555H4.22163V15.4053H16.8306V28.1555H20.377V0.84375H16.8306V11.9296Z" fill="#BABABA"/>
<path d="M43.6593 0.84375L30.7109 28.1555H34.6549L38.7864 19.464H49.6445L53.8162 28.1555H57.6618L44.8787 0.84375H43.6638H43.6593ZM48.0767 16.0194H40.4211L44.2578 7.94204L48.0767 16.0194Z" fill="#BABABA"/>
<path d="M92.6535 0.84375L82.2555 21.9651L71.8798 1.09297L71.7547 0.84375H70.6604L66.7344 28.1555H70.2004L72.6614 10.1672L81.6257 28.1555H82.8585L91.7111 10.3096L94.1855 28.1555H97.6873L93.7433 0.84375H92.6535Z" fill="#BABABA"/>
<path d="M119.667 0.84375L106.719 28.1555H110.663L114.794 19.464H125.652L129.824 28.1555H133.67L120.887 0.84375H119.672H119.667ZM124.085 16.0194H116.429L120.266 7.94204L124.085 16.0194Z" fill="#BABABA"/>
<path d="M152.201 11.3376L145.667 0.84375H141.566L150.486 15.2094V28.1555H153.992V15.2094L162.738 0.84375H158.628L152.201 11.3376Z" fill="#BABABA"/>
<path d="M184.816 0.84375H183.601L170.652 28.1555H174.596L178.728 19.464H189.586L193.758 28.1555H197.603L184.82 0.84375H184.816ZM188.014 16.0194H180.358L184.195 7.94204L188.014 16.0194Z" fill="#BABABA"/>
</svg>
