<svg width="88" height="19" viewBox="0 0 88 19" fill="none" xmlns="http://www.w3.org/2000/svg">
<path d="M0.601562 17.7331L2.94648 1.40039H3.21447L9.8785 14.8048L16.48 1.40039H16.7435L19.1018 17.7331H17.4939L15.8725 6.05099L10.075 17.7331H9.65517L3.79065 5.96199L2.18271 17.7331H0.601562Z" fill="#BABABA"/>
<path d="M26.9453 1.40039H28.5845V11.2623C28.5845 12.4328 28.6069 13.1626 28.6515 13.4519C28.7319 14.0972 28.924 14.6357 29.2188 15.0674C29.518 15.4991 29.9736 15.864 30.59 16.1577C31.2064 16.4514 31.8272 16.5983 32.4525 16.5983C32.993 16.5983 33.5155 16.4826 34.0113 16.2556C34.5071 16.0287 34.927 15.7082 35.2575 15.2988C35.5925 14.8938 35.8381 14.3998 35.9945 13.8213C36.1061 13.4074 36.1597 12.5574 36.1597 11.2668V1.40483H37.7989V11.2668C37.7989 12.7265 37.656 13.9058 37.3701 14.8048C37.0843 15.7038 36.5126 16.487 35.655 17.1546C34.7974 17.8221 33.7567 18.1559 32.5418 18.1559C31.2198 18.1559 30.0853 17.8399 29.1428 17.2124C28.2004 16.5849 27.5662 15.7483 27.249 14.7158C27.048 14.0794 26.9498 12.9312 26.9498 11.2757V1.41374L26.9453 1.40039Z" fill="#BABABA"/>
<path d="M44.6992 14.6928L46.0928 13.8606C47.0754 15.6586 48.2054 16.5575 49.4918 16.5575C50.0411 16.5575 50.5593 16.4285 51.0416 16.1748C51.524 15.9211 51.8903 15.5785 52.1449 15.1468C52.3995 14.7195 52.5245 14.2612 52.5245 13.7805C52.5245 13.2331 52.3369 12.6946 51.9662 12.1695C51.4526 11.4441 50.5191 10.5718 49.1568 9.54824C47.79 8.52022 46.9369 7.777 46.6064 7.31862C46.0258 6.54871 45.7355 5.7165 45.7355 4.82199C45.7355 4.10993 45.9052 3.46463 46.2491 2.87719C46.5886 2.29419 47.0709 1.83135 47.6918 1.49313C48.3126 1.1549 48.9871 0.990234 49.7151 0.990234C50.4878 0.990234 51.2114 1.1816 51.8814 1.56433C52.5558 1.94706 53.266 2.64577 54.0163 3.66935L52.6809 4.67957C52.0645 3.86516 51.5374 3.32667 51.1042 3.06855C50.6709 2.81043 50.1975 2.68137 49.6838 2.68137C49.0228 2.68137 48.4823 2.88163 48.0625 3.28216C47.6426 3.68269 47.4327 4.17223 47.4327 4.75967C47.4327 5.1157 47.5086 5.45838 47.656 5.79216C47.8034 6.12593 48.0759 6.48641 48.4689 6.88249C48.6833 7.09166 49.389 7.63459 50.5861 8.51576C52.0064 9.55714 52.9801 10.4873 53.5072 11.3017C54.0342 12.1161 54.2977 12.9349 54.2977 13.7538C54.2977 14.9376 53.8466 15.9656 52.9444 16.8423C52.0421 17.7146 50.9434 18.1507 49.6526 18.1507C48.6565 18.1507 47.7543 17.8882 46.9459 17.3586C46.1374 16.829 45.3915 15.9434 44.7081 14.6973L44.6992 14.6928Z" fill="#BABABA"/>
<path d="M62.0898 1.40039H63.729V17.7331H62.0898V1.40039Z" fill="#BABABA"/>
<path d="M87.3188 4.43036L86.028 5.41833C85.3133 4.49266 84.4602 3.7895 83.4597 3.31331C82.4592 2.83713 81.3605 2.59682 80.1679 2.59682C78.8592 2.59682 77.6488 2.90833 76.5367 3.53583C75.42 4.16333 74.558 5 73.9461 6.05473C73.3342 7.10946 73.026 8.2977 73.026 9.615C73.026 11.6043 73.7094 13.2687 75.0806 14.5994C76.4518 15.93 78.1803 16.5976 80.2662 16.5976C82.562 16.5976 84.4826 15.7031 86.028 13.9096L87.3188 14.8887C86.5014 15.9256 85.4831 16.7267 84.2593 17.2918C83.0354 17.857 81.6731 18.1419 80.1635 18.1419C77.296 18.1419 75.0314 17.1895 73.3788 15.2892C71.9897 13.6826 71.293 11.7423 71.293 9.47259C71.293 7.08275 72.1327 5.0712 73.8166 3.43792C75.5004 1.80465 77.6086 0.990234 80.1411 0.990234C81.6731 0.990234 83.0533 1.29286 84.286 1.89365C85.5188 2.4989 86.5282 3.34447 87.3188 4.43036Z" fill="#BABABA"/>
</svg>
